# xmcd
#
# Track frame offsets: 
#        150
#        12012
#        24507
#        34520
#        44277
#        57027
#        69052
#        81712
#        92125
#        104907
#        118932
#        132460
#        145220
#        155777
#        166655
#        179247
#        191625
#        203697
#        218630
#        230395
#        243627
#        256075
#        267990
#        278242
#
# Disc length: 3879 seconds
#
# Revision: 0
# Processed by: cddbd v1.5.1PL0 Copyright (c) Steve Scherf et al.
# Submitted via: ExactAudioCopy v0.95a4
#
DISCID=5f0f2518
DTITLE=George Morgan - Candy Kisses - Disc 5
DYEAR=1900
DGENRE=Country
TTITLE0=Candy Kisses
TTITLE1=I'm Not Afraid
TTITLE2=Loveable You
TTITLE3=Rockabilly Bungalow
TTITLE4=Come Away From His Arms
TTITLE5=I'm In Love Again
TTITLE6=The Touch Of Your Sweet Lips
TTITLE7=It Was All In Your Mind
TTITLE8=Please Don't Let Me Love You
TTITLE9=Almost
TTITLE10=Room Full Of Roses
TTITLE11=Cry Baby Heart
TTITLE12=Little Dutch Girl
TTITLE13=The Last Thing I Want To Know
TTITLE14=You're The Only Good Thing (That's Happened To Me)
TTITLE15=You're The Only Good Thing (That's Happened To Me)
TTITLE16=Come Away From His Arms
TTITLE17=One Empty Chair
TTITLE18=Where There's A Will There's A Way
TTITLE19=Who Knows You Best
TTITLE20=It's Best You Know
TTITLE21=The Little Green Men
TTITLE22=Only One Minute More
TTITLE23=The Day Will Come
EXTD=
EXTT0=
EXTT1=
EXTT2=
EXTT3=
EXTT4=
EXTT5=
EXTT6=
EXTT7=
EXTT8=
EXTT9=
EXTT10=
EXTT11=
EXTT12=
EXTT13=
EXTT14=
EXTT15=
EXTT16=
EXTT17=
EXTT18=
EXTT19=
EXTT20=
EXTT21=
EXTT22=
EXTT23=
PLAYORDER=
